<svg width="571" height="139" viewBox="0 0 571 139" fill="none" xmlns="http://www.w3.org/2000/svg">
<path d="M567.4 84.2C567.4 83 566.4 82.6 565.4 82.6H563.5V88H564.5V85.8H565.2L566.5 88H567.7L566.2 85.6C566.9 85.5 567.4 85 567.4 84.2ZM564.4 85V83.5H565.3C565.8 83.5 566.4 83.6 566.4 84.2C566.4 84.9 565.8 85 565.2 85H564.4ZM565.4 80.6C562.8 80.6 560.6 82.7 560.6 85.4C560.6 88.1 562.7 90.1 565.4 90.1C568.1 90.1 570.2 88 570.2 85.4C570.2 82.8 568 80.6 565.4 80.6ZM565.4 89.4C563.2 89.4 561.4 87.6 561.4 85.4C561.4 83.2 563.2 81.4 565.4 81.4C567.6 81.4 569.4 83.2 569.4 85.4C569.4 87.6 567.6 89.4 565.4 89.4ZM257 81.4C250 81.4 246.5 75.1 246.5 69.1C246.5 63 250.3 57 256.7 57C259.7 57 263.5 58.5 264.9 60.6L272.3 53.2C268.7 49.4 263 47.2 256.6 47.2C243.7 47.2 234.3 56.5 234.3 69.2C234.3 82.2 243.6 91.2 256.8 91.2C263.1 91.2 268.9 89.4 272.4 85.6L265.2 77.9C263.6 79.9 260.1 81.4 257 81.4ZM215.4 90.1H227V48.3H215.5V90.1H215.4ZM194.5 71.2C194.5 76.1 191.3 81.4 185.4 81.4C180.8 81.4 178.4 78.1 178.4 71.4V48.4H166.9V74.3C166.9 82.9 171.2 91.3 182.7 91.3C188.1 91.3 192.7 87 194.9 83.9H195.1V90.1H206.1V48.3H194.6V71.2H194.5ZM146 53.6H145.7C144.1 51.8 139.7 47.1 132.5 47.1C120.8 47.1 111.7 56.3 111.7 69C111.7 81.9 120.1 91.2 131.9 91.2C137.3 91.2 142.4 88.3 145.3 85H145.5V110.6H157V48.3H146V53.6ZM134.8 81.4C127.7 81.4 123.6 75.2 123.6 69C123.6 63.1 127.3 56.8 134.8 56.8C141.7 56.8 145.9 63.2 145.9 69.2C145.9 75.2 141.8 81.4 134.8 81.4ZM397.2 47.2C384.1 47.2 374.6 56.4 374.6 69.1C374.6 82.2 384.3 91.4 397.2 91.4C410.1 91.4 419.8 82.1 419.8 69.1C419.8 56.4 410.3 47.2 397.2 47.2ZM397.2 81.4C389.7 81.4 386.3 75 386.3 69C386.3 63.1 389.7 56.8 397.2 56.8C404.7 56.8 408.1 63.1 408.1 69C408.1 75 404.7 81.4 397.2 81.4ZM541.2 64.4C535.3 63 533.2 62.2 533.2 59.8C533.2 56.5 537.4 55.8 539.3 55.8C542.9 55.8 546.9 57.9 548.4 60L555.2 53.5C552.1 49.6 545.9 47.3 539.4 47.3C531.1 47.3 522.3 51.5 522.3 60.9C522.3 68.9 528.6 71.4 534.8 72.8C541.3 74.3 543.6 75.4 543.6 78C543.6 81.9 539.2 82.5 537.7 82.5C533.9 82.5 529.6 80.3 527.2 77.5L520.2 84.6C524 88.8 530.6 91.4 537.3 91.4C548.6 91.4 555.2 86 555.2 77.2C555.2 68.6 547 65.8 541.2 64.4ZM519.4 48.3H504.5L489.6 65.6H489.3V25.4H477.8V90.1H489.3V69.5H489.6L505 90.1H520.2L502.3 67.3L519.4 48.3ZM348.6 47.2C343.3 47.2 339.5 49.5 335.8 52.9H335.6V25.4H324.1V90.1H335.1V84.2H335.3C337.9 88.5 343.1 91.3 348.4 91.3C360.3 91.3 369.3 82 369.3 69.1C369.3 56.4 360.4 47.2 348.6 47.2ZM346.3 81.4C339.4 81.4 335.2 75.2 335.2 69.2C335.2 63.3 339.4 56.8 346.3 56.8C353.8 56.8 357.5 63.1 357.5 69C357.5 75.2 353.5 81.4 346.3 81.4ZM319.7 48.3H304.8L290 65.6H289.7V25.4H278.2V90.1H289.7V69.5H290L305.4 90.1H320.6L302.7 67.3L319.7 48.3ZM447.8 47.2C434.7 47.2 425.2 56.4 425.2 69.1C425.2 82.2 434.9 91.4 447.8 91.4C460.7 91.4 470.4 82.1 470.4 69.1C470.4 56.4 460.9 47.2 447.8 47.2ZM447.8 81.4C440.3 81.4 436.9 75 436.9 69C436.9 63.1 440.3 56.8 447.8 56.8C455.3 56.8 458.7 63.1 458.7 69C458.7 75 455.3 81.4 447.8 81.4Z" fill="black"/>
<path d="M50.3 98.1C77.0859 98.1 98.8 76.3858 98.8 49.6C98.8 22.8142 77.0859 1.09998 50.3 1.09998C23.5142 1.09998 1.80005 22.8142 1.80005 49.6C1.80005 76.3858 23.5142 98.1 50.3 98.1Z" fill="#2CA01C"/>
<path d="M15.3 49.6C15.3 60 23.7001 68.5 34.2001 68.5H36.9001V61.5H34.2001C27.7001 61.5 22.3 56.2 22.3 49.6C22.3 43.1 27.6001 37.7 34.2001 37.7H40.7001V74.4C40.7001 78.3 43.8001 81.4 47.7001 81.4V30.8H34.2001C23.7001 30.8 15.3 39.2 15.3 49.6ZM66.5 30.8H63.8V37.8H66.5C73 37.8 78.4001 43.1 78.4001 49.7C78.4001 56.3 73 61.5 66.5 61.5H60V24.8C60 20.9 56.9 17.8 53 17.8V68.5H66.5C76.9 68.5 85.4 60.1 85.4 49.6C85.4 39.2 76.9 30.8 66.5 30.8Z" fill="white"/>
<path d="M159.3 12.2C161.1 12.2 162.5 10.8 162.5 8.99999C162.5 7.19999 161.1 5.79999 159.3 5.79999C157.5 5.79999 156.1 7.19999 156.1 8.99999C156.1 10.8 157.5 12.2 159.3 12.2ZM140.2 14.3C137.1 14.3 134.5 16.2 133.6 18.3H133.5V14.9H128.5V36.1H133.8V24.5C133.8 21.7 135.4 18.8 138.8 18.8C142.2 18.8 142.8 21.9 142.8 24.5V36.3H148.1V22.9C148 18.6 145.7 14.3 140.2 14.3ZM117.7 36.2H123V14.9H117.7V36.2ZM214.2 12.2C216 12.2 217.4 10.8 217.4 8.99999C217.4 7.19999 216 5.79999 214.2 5.79999C212.4 5.79999 211 7.19999 211 8.99999C211 10.8 212.4 12.2 214.2 12.2ZM205.6 14.9V19.6H211.5V36.1H216.8V19.6H222.7V14.9H205.6ZM196.5 36.2H201.8V14.9H196.5V36.2ZM150.7 19.6H156.6V36.1H161.9V19.6H167.8V14.9H150.6V19.6H150.7ZM185.8 26.6C185.8 29.4 184.2 32.3 180.8 32.3C177.4 32.3 176.8 29.2 176.8 26.6V14.9H171.5V28.2C171.5 32.5 173.8 36.8 179.3 36.8C182.4 36.8 185 34.9 185.9 32.8H186V36.2H191V14.9H185.7V26.6H185.8Z" fill="black"/>
</svg>
