<svg width="1896" height="401" viewBox="0 0 1896 401" fill="none" xmlns="http://www.w3.org/2000/svg">
<g clip-path="url(#clip0_2_5)">
<path fill-rule="evenodd" clip-rule="evenodd" d="M451.921 151.494C448.931 162.65 443.136 170.838 434.535 176.066C425.924 181.293 413.847 183.912 398.269 183.912H348.777L366.151 119.081H415.643C431.209 119.081 441.896 121.695 447.702 126.922C453.497 132.155 454.911 140.344 451.921 151.494ZM503.174 150.097C509.468 126.638 506.859 108.627 495.351 96.0797C483.841 83.5327 463.674 77.2627 434.871 77.2627H324.391L257.897 325.403H311.572L338.381 225.378H373.581C381.474 225.378 387.687 226.658 392.231 229.214C396.785 231.775 399.451 236.307 400.274 242.804L409.848 325.403H467.359L458.029 248.385C456.128 231.19 448.259 221.083 434.431 218.064C452.06 212.958 466.826 204.468 478.718 192.617C490.599 180.772 498.758 166.602 503.174 150.097Z" fill="#072654"/>
<path fill-rule="evenodd" clip-rule="evenodd" d="M633.625 236.533C629.14 253.258 622.231 266.042 612.901 274.868C603.56 283.7 592.386 288.111 579.382 288.111C566.122 288.111 557.128 283.758 552.387 275.042C547.623 266.332 547.461 253.733 551.889 237.228C556.305 220.735 563.352 207.841 573.053 198.539C582.742 189.255 594.09 184.602 607.105 184.602C620.11 184.602 628.919 189.082 633.485 198.024C638.053 206.966 638.11 219.802 633.625 236.533ZM657.153 148.706L650.431 173.8C647.521 164.736 641.9 157.538 633.578 152.195C625.245 146.852 614.918 144.174 602.608 144.174C587.506 144.174 572.983 148.069 559.052 155.852C545.12 163.64 532.938 174.617 522.519 188.786C512.099 202.961 504.461 219.107 499.604 237.228C494.748 255.356 493.774 271.328 496.695 285.149C499.616 298.977 505.944 309.605 515.691 317.04C525.428 324.481 537.969 328.19 553.303 328.19C565.612 328.19 577.342 325.635 588.469 320.523C599.595 315.418 609.041 308.325 616.818 299.266L609.807 325.403H661.731L709.079 148.706H657.153Z" fill="#072654"/>
<path fill-rule="evenodd" clip-rule="evenodd" d="M895.79 148.706H744.882L734.334 188.091H822.155L706.042 288.458L696.132 325.403H851.92L862.478 286.024H768.388L886.263 184.254L895.79 148.706Z" fill="#072654"/>
<path fill-rule="evenodd" clip-rule="evenodd" d="M1028.65 236.185C1023.98 253.605 1017.06 266.627 1007.9 275.222C998.748 283.816 987.667 288.11 974.663 288.11C947.471 288.11 938.523 270.811 947.796 236.185C952.409 218.99 959.363 206.038 968.659 197.328C977.965 188.612 989.232 184.254 1002.48 184.254C1015.48 184.254 1024.26 188.612 1028.78 197.328C1033.3 206.038 1033.26 218.99 1028.65 236.185ZM1059.03 155.324C1047.08 147.894 1031.82 144.174 1013.22 144.174C994.401 144.174 976.969 147.894 960.917 155.324C944.864 162.765 931.198 173.452 919.921 187.389C908.631 201.332 900.495 217.594 895.511 236.185C890.527 254.776 889.948 271.032 893.773 284.975C897.586 298.918 905.514 309.605 917.591 317.04C929.657 324.481 945.095 328.19 963.919 328.19C982.509 328.19 999.767 324.481 1015.71 317.04C1031.62 309.605 1045.24 298.918 1056.53 284.975C1067.8 271.032 1075.94 254.776 1080.92 236.185C1085.91 217.594 1086.49 201.332 1082.67 187.389C1078.85 173.452 1070.97 162.765 1059.03 155.324Z" fill="#072654"/>
<path fill-rule="evenodd" clip-rule="evenodd" d="M1602.14 236.533C1597.65 253.258 1590.74 266.042 1581.41 274.868C1572.08 283.7 1560.89 288.111 1547.88 288.111C1534.65 288.111 1525.64 283.758 1520.9 275.042C1516.13 266.332 1515.97 253.733 1520.4 237.228C1524.82 220.735 1531.86 207.841 1541.56 198.539C1551.25 189.255 1562.6 184.602 1575.62 184.602C1588.62 184.602 1597.43 189.082 1602 198.024C1606.56 206.966 1606.62 219.802 1602.14 236.533ZM1625.66 148.706L1618.94 173.8C1616.03 164.736 1610.41 157.538 1602.09 152.195C1593.76 146.852 1583.43 144.174 1571.12 144.174C1556.02 144.174 1541.49 148.069 1527.56 155.852C1513.63 163.64 1501.45 174.617 1491.03 188.786C1480.61 202.961 1472.97 219.107 1468.12 237.228C1463.26 255.356 1462.3 271.328 1465.21 285.149C1468.13 298.977 1474.44 309.605 1484.2 317.04C1493.94 324.481 1506.48 328.19 1521.81 328.19C1534.12 328.19 1545.85 325.635 1556.98 320.523C1568.11 315.418 1577.55 308.325 1585.33 299.266L1578.32 325.403H1630.24L1677.59 148.706H1625.66Z" fill="#072654"/>
<path fill-rule="evenodd" clip-rule="evenodd" d="M1244.17 196.106L1257.4 148.011C1252.9 145.687 1246.95 144.523 1239.52 144.523C1227.66 144.523 1216.24 147.484 1205.24 153.412C1195.8 158.498 1187.75 165.637 1180.96 174.582L1187.85 148.682L1172.81 148.707H1135.94L1088.23 325.403H1140.87L1165.62 233.051C1169.22 219.577 1175.69 209.064 1185.04 201.513C1194.37 193.962 1206.02 190.183 1219.96 190.183C1228.56 190.183 1236.62 192.159 1244.17 196.106Z" fill="#072654"/>
<path fill-rule="evenodd" clip-rule="evenodd" d="M1390.7 237.226C1386.27 253.731 1379.41 266.33 1370.11 275.04C1360.79 283.756 1349.64 288.108 1336.64 288.108C1323.62 288.108 1314.76 283.698 1310.04 274.866C1305.31 266.04 1305.19 253.261 1309.68 236.53C1314.17 219.8 1321.14 206.963 1330.62 198.021C1340.1 189.079 1351.36 184.599 1364.38 184.599C1377.15 184.599 1385.83 189.253 1390.43 198.543C1395.02 207.838 1395.11 220.738 1390.7 237.226ZM1427.49 155.849C1417.72 148.066 1405.28 144.178 1390.19 144.178C1376.94 144.178 1364.33 147.197 1352.39 153.236C1340.42 159.286 1330.72 167.521 1323.28 177.981L1323.44 176.822L1332.29 148.679H1322.11V148.704H1280.9L1267.82 197.566C1267.66 198.134 1267.54 198.664 1267.39 199.238L1213.41 400.681H1266.04L1293.22 299.27C1295.89 308.322 1301.43 315.415 1309.82 320.521C1318.21 325.632 1328.56 328.188 1340.88 328.188C1356.22 328.188 1370.8 324.479 1384.65 317.038C1398.49 309.608 1410.52 298.974 1420.72 285.147C1430.93 271.331 1438.46 255.353 1443.32 237.226C1448.18 219.104 1449.18 202.959 1446.37 188.784C1443.55 174.614 1437.24 163.638 1427.49 155.849Z" fill="#072654"/>
<path fill-rule="evenodd" clip-rule="evenodd" d="M1895.54 148.755L1895.57 148.706H1863.69C1862.67 148.706 1861.77 148.735 1860.84 148.755H1844.3L1835.84 160.543C1835.16 161.431 1834.48 162.325 1833.75 163.362L1832.83 164.727L1765.59 258.375L1751.64 148.706H1696.56L1724.46 315.354L1662.86 400.683H1664.62H1696.07H1717.73L1732.66 379.537C1733.1 378.907 1733.48 378.391 1733.95 377.725L1751.37 353.028L1751.87 352.321L1829.81 241.827L1895.49 148.828L1895.57 148.755H1895.54Z" fill="#072654"/>
<path fill-rule="evenodd" clip-rule="evenodd" d="M122.634 105.69L106.878 163.673L197.034 105.364L138.075 325.348L197.948 325.403L285.046 0.482208L122.634 105.69Z" fill="#3395FF"/>
<path fill-rule="evenodd" clip-rule="evenodd" d="M25.5947 232.925L0.807709 325.403H123.534C123.534 325.403 173.732 137.32 173.746 137.266C173.699 137.296 25.5947 232.925 25.5947 232.925Z" fill="#072654"/>
</g>
<defs>
<clipPath id="clip0_2_5">
<rect width="1896" height="401" fill="white"/>
</clipPath>
</defs>
</svg>
