<svg width="458" height="193" viewBox="0 0 458 193" fill="none" xmlns="http://www.w3.org/2000/svg">
<g clip-path="url(#clip0_2_19)">
<path d="M204.533 153.448C201.039 153.448 197.501 152.736 194.098 151.268L121.51 119.545C108.535 113.895 102.683 98.9007 108.445 86.176L140.791 14.9887C146.553 2.26395 161.842 -3.47553 174.817 2.17496L247.405 33.8978C260.38 39.5483 266.232 54.5421 260.471 67.2669L228.124 138.454C223.814 147.886 214.377 153.448 204.533 153.448ZM200.132 137.92C205.621 140.323 212.064 137.876 214.513 132.537L246.86 61.3494C249.31 55.9659 246.815 49.648 241.371 47.2454L168.738 15.5226C163.248 13.12 156.806 15.5671 154.356 20.9061L122.009 92.0934C119.56 97.477 122.055 103.795 127.499 106.197L200.132 137.92Z" fill="#089949"/>
<path d="M432.231 153.492H352.748C338.548 153.492 326.979 142.147 326.979 128.221V50.2709C326.979 36.3449 338.548 24.9994 352.748 24.9994H432.231C446.431 24.9994 458 36.3449 458 50.2709V128.221C458 142.147 446.431 153.492 432.231 153.492ZM352.748 39.5928C346.759 39.5928 341.86 44.3979 341.86 50.2709V128.221C341.86 134.094 346.759 138.899 352.748 138.899H432.231C438.22 138.899 443.12 134.094 443.12 128.221V50.2709C443.12 44.3979 438.22 39.5928 432.231 39.5928H352.748Z" fill="#F9B21D"/>
<path d="M134.576 64.5528L123.869 88.0447C123.733 88.3116 123.597 88.5341 123.461 88.7565L127.635 114.028C128.588 119.856 124.55 125.329 118.652 126.263L40.1667 138.721C37.3085 139.166 34.405 138.499 32.0459 136.852C29.6868 135.206 28.1443 132.715 27.6906 129.912L14.9878 52.9404C14.5341 50.1374 15.2146 47.2899 16.8932 44.9763C18.5718 42.6627 21.1124 41.15 23.9705 40.7051L102.456 28.2473C103.046 28.1583 103.636 28.1138 104.18 28.1138C109.397 28.1138 114.07 31.8512 114.932 37.1012L119.151 62.5507L130.221 38.2135L129.631 34.7877C127.363 21.0396 114.115 11.6518 100.097 13.8764L21.6114 26.3342C14.8517 27.3575 8.86318 30.9613 4.87085 36.4339C0.833156 41.9064 -0.754702 48.5802 0.334115 55.254L13.037 132.225C14.1258 138.899 17.8005 144.728 23.3807 148.687C27.7814 151.846 32.9986 153.448 38.3973 153.448C39.7583 153.448 41.1647 153.359 42.5711 153.137L121.057 140.679C135.075 138.454 144.648 125.462 142.379 111.714L134.576 64.5528Z" fill="#E42527"/>
<path d="M228.713 101.303L240.237 75.9873L236.97 52.451C236.562 49.648 237.333 46.845 239.103 44.5759C240.872 42.3068 243.412 40.8385 246.316 40.4826L325.074 29.9825C325.573 29.938 326.072 29.8935 326.571 29.8935C328.93 29.8935 331.198 30.6498 333.149 32.0736C333.512 32.3405 333.83 32.652 334.147 32.9189C337.64 29.3151 342.223 26.7345 347.349 25.6222C345.897 23.6646 344.173 21.9294 342.132 20.4167C336.642 16.3234 329.883 14.5882 323.078 15.4781L244.229 25.9782C237.424 26.868 231.345 30.3384 227.216 35.7219C223.042 41.1055 221.273 47.7348 222.181 54.4086L228.713 101.303Z" fill="#226DB4"/>
<path d="M362.729 114.339L352.385 39.5928C346.578 39.7707 341.905 44.4869 341.905 50.2264V72.1609L348.029 116.297C348.438 119.1 347.667 121.903 345.897 124.172C344.128 126.441 341.587 127.91 338.684 128.265L259.926 138.766C257.068 139.166 254.21 138.41 251.896 136.674C249.582 134.939 248.085 132.448 247.722 129.6L244.093 103.394L232.57 128.71L232.978 131.558C233.885 138.232 237.424 144.194 242.913 148.242C247.45 151.624 252.849 153.403 258.474 153.403C259.654 153.403 260.833 153.314 262.013 153.181L340.68 142.77C347.485 141.88 353.564 138.41 357.693 133.026C361.867 127.643 363.636 121.013 362.729 114.339Z" fill="#226DB4"/>
<path d="M140.519 190.465L151.77 174.181H142.515C142.016 174.181 141.608 173.781 141.608 173.291V171.111C141.608 170.622 142.016 170.222 142.515 170.222H157.714C158.213 170.222 158.621 170.622 158.621 171.111V171.957C158.621 172.135 158.575 172.313 158.485 172.446L147.46 188.73H157.351C157.85 188.73 158.258 189.131 158.258 189.62V191.8C158.258 192.29 157.85 192.69 157.351 192.69H141.291C140.791 192.69 140.383 192.29 140.383 191.8V190.999C140.338 190.777 140.429 190.599 140.519 190.465ZM187.883 181.3C187.883 174.626 192.873 169.821 199.678 169.821C206.71 169.821 211.474 174.537 211.474 181.345C211.474 188.241 206.619 193.001 199.588 193.001C192.51 193.001 187.883 188.241 187.883 181.3ZM206.075 181.389C206.075 177.34 204.079 173.87 199.588 173.87C195.051 173.87 193.327 177.474 193.327 181.567C193.327 185.438 195.459 188.997 199.814 188.997C204.306 188.953 206.075 185.171 206.075 181.389ZM243.73 170.177H247.087C247.586 170.177 247.995 170.577 247.995 171.067V179.342H257.522V171.067C257.522 170.577 257.93 170.177 258.429 170.177H261.786C262.285 170.177 262.694 170.577 262.694 171.067V191.756C262.694 192.245 262.285 192.646 261.786 192.646H258.474C257.975 192.646 257.567 192.245 257.567 191.756V183.391H248.04V191.756C248.04 192.245 247.632 192.646 247.133 192.646H243.775C243.276 192.646 242.868 192.245 242.868 191.756V171.067C242.823 170.577 243.231 170.177 243.73 170.177ZM294.042 181.3C294.042 174.626 299.033 169.821 305.838 169.821C312.87 169.821 317.633 174.537 317.633 181.345C317.633 188.241 312.779 193.001 305.747 193.001C298.67 193.001 294.042 188.241 294.042 181.3ZM312.189 181.389C312.189 177.34 310.193 173.87 305.702 173.87C301.165 173.87 299.441 177.474 299.441 181.567C299.441 185.438 301.573 188.997 305.929 188.997C310.42 188.953 312.189 185.171 312.189 181.389Z" fill="black"/>
</g>
<defs>
<clipPath id="clip0_2_19">
<rect width="458" height="193" fill="white"/>
</clipPath>
</defs>
</svg>
